<?xml version="1.0" encoding="UTF-8"?>
<svg width="182px" height="60px" viewBox="0 0 182 60" version="1.1" xmlns="http://www.w3.org/2000/svg" xmlns:xlink="http://www.w3.org/1999/xlink">
    <title>LOGO-white</title>
    <g id="People" stroke="none" stroke-width="1" fill="none" fill-rule="evenodd">
        <g id="1-FIDIAPpeople-1440" transform="translate(-48.000000, -50.000000)" fill="#FFFFFE">
            <path d="M78.3317104,50 C95.0866497,50 108.666631,63.4293772 108.666631,79.9978444 C108.666631,96.5668505 95.0866497,110 78.3317104,110 C61.5826565,110 48,96.5668505 48,79.9978444 C48,63.4293772 61.5826565,50 78.3317104,50 Z M55.8057739,70.4981228 C55.8057739,69.6294167 55.4093054,69.821265 55.4093054,69.821265 C51.0652737,71.0009161 50.914391,78.9157341 50.914391,78.9157341 C50.3269114,89.6538468 55.4831417,95.8102355 55.4831417,95.8102355 C55.4831417,95.8102355 62.736749,107.304424 77.7030323,107.596508 C92.0646173,107.86955 93.6509413,102.591743 93.755684,102.164808 L93.7604348,102.144391 C93.761432,102.139799 93.7618779,102.137455 93.7618779,102.137455 C94.7415456,98.458388 91.9020609,94.6898633 91.9020609,94.6898633 C86.4242685,87.3311897 74.5885344,84.8156065 74.5885344,84.8156065 C63.0813071,80.3873478 62.3808031,73.4574926 62.3576601,72.0893449 L62.3577515,71.93801 C62.3589451,71.8803365 62.3611473,71.8502218 62.3611473,71.8502218 C62.4553152,70.5962026 61.3820146,71.0790566 61.3820146,71.0790566 C60.4044871,71.1744418 59.4248194,72.5313909 59.4248194,72.5313909 C57.2734028,75.4344429 59.8180776,79.5947475 60.3038986,80.4623758 C60.794535,81.3321597 60.4997251,81.6280156 60.4997251,81.6280156 C60.4997251,81.6280156 59.9313556,81.6461692 59.2449203,81.6500211 L58.8614985,81.6505087 C58.0820632,81.6478669 57.2595558,81.6211823 56.9785929,81.5283192 C56.3932535,81.3321597 56.1942167,81.2389301 55.7067905,79.7839013 C55.2198994,78.3348003 55.8057739,71.3706012 55.8057739,70.4981228 Z M213.191556,71.7207782 C215.937943,71.7207782 218.488503,72.5043381 220.673093,73.8246421 L220.673093,73.8246421 L220.673093,72.134653 L230,72.134653 L230,99.5339237 L220.673093,99.5339237 L220.673093,98.1236236 C218.488503,99.4406941 215.937943,100.218865 213.191556,100.218865 C205.249881,100.218865 198.78279,93.8237439 198.78279,85.9687438 C198.78279,78.1126659 205.249881,71.7207782 213.191556,71.7207782 Z M184.206073,60.0230469 L184.206073,99.5335465 L174.879166,99.5335465 L174.879166,98.291383 C172.756106,99.509296 170.295969,100.218488 167.672642,100.218488 C159.734712,100.218488 153.269762,93.8239056 153.269762,85.9683666 C153.269762,78.1128276 159.734712,71.7204009 167.672642,71.7204009 C170.295969,71.7204009 172.756106,72.4290539 174.879166,73.6534337 L174.879166,73.6534337 L174.879166,60.0230469 L184.206073,60.0230469 Z M196.594937,72.1344375 L196.594937,99.5337082 L187.264284,99.5337082 L187.264284,72.1344375 L196.594937,72.1344375 Z M150.378806,72.1344375 L150.378806,99.5337082 L141.053503,99.5337082 L141.053503,72.1344375 L150.378806,72.1344375 Z M133.074091,60.327665 L133.364102,60.3288186 C135.65891,60.3730083 136.912521,60.3730083 139.001338,61.2999156 L139.001338,61.2999156 L139.001338,69.2438341 C139.001338,69.2438341 132.04147,66.5644254 132.04147,72.1344914 L132.04147,72.1344914 L138.692082,72.1344914 L138.692082,81.3582964 L132.149549,81.3582964 L132.149549,99.5337621 L122.578661,99.5337621 L122.578661,70.9984911 C122.578661,65.0468843 127.350194,60.2258887 133.364102,60.3288186 Z M98.5564176,82.398642 C98.5564176,82.398642 95.6184846,79.8841366 93.2755218,81.1408504 C91.4543351,82.1156389 91.2219596,85.0075636 91.2095882,86.259581 L91.2095734,86.4804743 C91.2119034,86.7120638 91.2209484,86.8483357 91.2209484,86.8483357 C91.9020609,95.0740987 99.3349083,97.6883005 99.3349083,97.6883005 C100.318856,97.8790709 100.611526,97.3967558 100.611526,97.3967558 C102.954489,95.2686414 102.567116,91.3012628 102.567116,91.3012628 C102.369684,85.489231 98.5564176,82.398642 98.5564176,82.398642 Z M213.191556,79.9810307 C209.85555,79.9810307 207.139125,82.6696007 207.139125,85.9687438 C207.139125,89.2700426 209.85555,91.9623848 213.191556,91.9623848 C216.531308,91.9623848 219.246127,89.2700426 219.246127,85.9687438 C219.246127,82.6696007 216.531308,79.9810307 213.191556,79.9810307 Z M167.672642,79.9811924 C164.33289,79.9811924 161.617536,82.6692234 161.617536,85.9683666 C161.617536,89.2702042 164.33289,91.9625465 167.672642,91.9625465 C171.010789,91.9625465 173.728819,89.2702042 173.728819,85.9683666 C173.728819,82.6692234 171.010789,79.9811924 167.672642,79.9811924 Z M100.509867,62.2761321 C99.7287015,61.3066518 99.6323934,62.4685193 99.6323934,62.4685193 C98.9475356,67.014676 97.9411156,68.1334315 96.4044659,70.4981228 C94.6420272,73.2082488 91.1444369,76.1479459 90.6329337,76.4033843 C90.043314,76.6900789 91.7089096,77.1734718 91.7089096,77.1734718 L91.8071688,77.2068767 C93.0087456,77.6154496 104.8313,81.637661 105.108581,81.8177082 C105.403391,82.0138677 106.380383,82.398642 106.57621,82.3032567 C107.101624,82.0408127 106.871554,81.1408504 106.871554,81.1408504 C106.592802,67.5376932 101.173265,62.8077786 100.565208,62.3192613 L100.530092,62.291518 C100.51676,62.2811904 100.509867,62.2761321 100.509867,62.2761321 Z M191.756095,59.7813505 C194.884504,59.7813505 197.423829,62.2985504 197.423829,65.3939895 C197.423829,68.4964343 194.884504,71.003934 191.756095,71.003934 C188.622871,71.003934 186.081941,68.4964343 186.081941,65.3939895 C186.081941,62.2985504 188.622871,59.7813505 191.756095,59.7813505 Z M145.541569,59.7813505 C148.677469,59.7813505 151.215188,62.2985504 151.215188,65.3939895 C151.215188,68.4964343 148.677469,71.003934 145.541569,71.003934 C142.408345,71.003934 139.870625,68.4964343 139.870625,65.3939895 C139.870625,62.2985504 142.408345,59.7813505 145.541569,59.7813505 Z M72.8209768,53.0501056 C72.6320582,53.0478278 66.6370838,53.0165374 61.0882748,58.1147497 L61.0882748,58.1147497 L61.056301,58.1425641 C60.7864247,58.3802292 58.9033414,60.0965528 59.0727597,61.5712515 C59.2685862,63.2833354 61.1005808,65.555336 65.2985452,65.662577 C69.9887511,65.7854461 71.8485681,64.6952523 73.5141637,62.6625231 L73.5141637,62.6625231 L73.526117,62.6465444 C73.6325395,62.5014401 74.3759431,61.4252456 72.7329978,61.7878891 C72.7329978,61.7878891 69.2728607,61.9161472 66.8582019,62.3715174 C65.201702,62.6803068 65.2985452,60.8194866 65.7827611,59.8580898 C66.2733975,58.8902262 70.62706,55.3814511 72.534496,54.534301 C72.534496,54.534301 72.9448756,54.3359859 73.4157154,53.857982 C74.1663838,53.0873556 72.8255606,53.0501715 72.8255606,53.0501715 Z M80.8496329,54.7283048 C80.8496329,54.7283048 81.2391458,56.0976486 81.8293006,56.9523433 C82.4563735,57.8641614 82.9031362,60.4368679 82.7073097,61.9824319 C82.5109481,63.5312292 82.41464,64.7890208 82.805758,64.3040112 C83.1979461,63.8233128 84.2723168,62.4685193 83.9817873,59.4679265 C83.6869774,56.4689504 80.8496329,54.7283048 80.8496329,54.7283048 Z M92.0063947,55.5997054 L91.6126014,55.5997054 C91.6126014,55.5997054 91.8057527,56.1822558 92.0063947,56.4689504 C92.1968708,56.761034 92.7854204,57.9218236 92.8844038,58.5043741 C92.9807119,59.0815355 93.2755218,60.6281773 93.2755218,60.6281773 C93.2755218,60.6281773 94.0572228,60.726257 94.1556711,60.3387882 C94.2503741,59.9507805 95.1326636,59.3703857 94.5473242,57.726742 C93.9598446,56.0798649 92.0063947,55.5997054 92.0063947,55.5997054 L92.0063947,55.5997054 Z" id="LOGO-white"></path>
        </g>
    </g>
</svg>