<svg width="117" height="32" viewBox="0 0 117 32" fill="none" xmlns="http://www.w3.org/2000/svg">
<path d="M116.569 14.3357C116.261 13.2282 115.83 12.2438 115.153 11.3824C114.466 10.493 113.58 9.77663 112.566 9.29052C111.519 8.73678 110.226 8.49067 108.748 8.49067C107.3 8.49754 105.879 8.8791 104.623 9.59816C104.007 9.90579 103.514 10.3365 103.083 10.8287C102.898 11.0133 102.775 11.1978 102.652 11.3824V9.10594H95.0163V31.3171H102.837V19.2578C102.837 18.7041 102.898 18.1504 103.083 17.5966C103.337 16.6411 103.956 15.8234 104.807 15.3201C105.238 15.074 105.731 15.0125 106.285 15.0125C106.839 15.0125 107.332 15.1356 107.702 15.3201C108.071 15.5047 108.317 15.8123 108.564 16.1815C108.748 16.5507 108.933 16.9813 108.995 17.5351C109.118 18.0888 109.118 18.6426 109.118 19.1963V31.3171H117V17.6581C117 16.5507 116.877 15.4432 116.569 14.3357ZM84.9174 20.1807C84.9174 21.4372 84.4178 22.6422 83.5286 23.5307C82.6394 24.4192 81.4333 24.9183 80.1758 24.9183C78.9182 24.9183 77.7122 24.4192 76.823 23.5307C75.9338 22.6422 75.4342 21.4372 75.4342 20.1807C75.4342 18.9243 75.9338 17.7192 76.823 16.8308C77.7122 15.9423 78.9182 15.4432 80.1758 15.4432C81.4333 15.4432 82.6394 15.9423 83.5286 16.8308C84.4178 17.7192 84.9174 18.9243 84.9174 20.1807ZM80.1758 8.36762C78.6227 8.36803 77.085 8.67406 75.6503 9.26825C74.2156 9.86244 72.9122 10.7332 71.8143 11.8307C70.7164 12.9282 69.8456 14.231 69.2517 15.6648C68.6577 17.0986 68.3522 18.6352 68.3526 20.1869C68.353 21.7386 68.6593 23.2751 69.254 24.7085C69.8487 26.142 70.7202 27.4443 71.8186 28.5413C72.9171 29.6382 74.221 30.5083 75.656 31.1017C77.091 31.6952 78.6289 32.0004 80.182 32C81.735 31.9996 83.2727 31.6936 84.7074 31.0994C86.1421 30.5052 87.4456 29.6345 88.5435 28.5369C89.6413 27.4394 90.5121 26.1366 91.1061 24.7028C91.7 23.2691 92.0055 21.7325 92.0051 20.1807C92.0047 18.629 91.6984 17.0926 91.1037 15.6591C90.509 14.2257 89.6376 12.9233 88.5391 11.8263C87.4407 10.7294 86.1367 9.85934 84.7017 9.2659C83.2668 8.67245 81.7288 8.36722 80.1758 8.36762ZM58.7463 24.8568C57.9282 24.8554 57.1243 24.6426 56.4128 24.239C55.7014 23.8354 55.1065 23.2547 54.6862 22.5534C54.2658 21.8521 54.0342 21.054 54.0139 20.2368C53.9936 19.4196 54.1853 18.6111 54.5703 17.8898C54.9553 17.1685 55.5205 16.559 56.2111 16.1206C56.9016 15.6822 57.6939 15.4298 58.511 15.3879C59.3281 15.346 60.1421 15.5161 60.8739 15.8815C61.6058 16.247 62.2305 16.7955 62.6874 17.4736L67.4289 12.0592C66.323 10.8642 64.9794 9.91302 63.4842 9.26674C61.9891 8.62045 60.3753 8.29325 58.7463 8.3061C55.6106 8.3061 52.6034 9.55069 50.3861 11.7661C48.1688 13.9815 46.9232 16.9862 46.9232 20.1192C46.9232 23.2522 48.1688 26.257 50.3861 28.4723C52.6034 30.6877 55.6106 31.9323 58.7463 31.9323C62.1332 31.9323 65.2121 30.5172 67.3674 28.2407L62.7489 22.6418C62.3238 23.3192 61.7336 23.8777 61.0336 24.2651C60.3335 24.6525 59.5466 24.8561 58.7463 24.8568ZM13.1779 0L0 31.2555H8.86737L11.1458 25.2874H22.4763L24.8779 31.2555H33.8684L20.8137 0H13.1779ZM20.1363 18.6426H13.4858L16.8111 9.59816L20.1363 18.6426ZM36.0237 0H43.9674V31.2555H36.0237V0Z" fill="white"/>
</svg>
