<svg xmlns="http://www.w3.org/2000/svg" width="117.057" height="80.092" viewBox="0 0 117.057 80.092">
  <g id="Group_9" data-name="Group 9" transform="translate(-95.515 -45.757)">
    <g id="Group_1" data-name="Group 1" transform="translate(183.441 119.334)">
      <path id="Path_1" data-name="Path 1" d="M236.338,163.728a13.38,13.38,0,0,1,1.949-.13,4.091,4.091,0,0,1,2.606.68,2.805,2.805,0,0,1,1.075,2.4,3.235,3.235,0,0,1-1.058,2.581,4.568,4.568,0,0,1-2.936.818,12.237,12.237,0,0,1-1.636-.093Zm1.446,5.2a2.784,2.784,0,0,0,.5.027,1.975,1.975,0,0,0,2.153-2.227,1.826,1.826,0,0,0-2-2.021,3.4,3.4,0,0,0-.657.054Z" transform="translate(-236.338 -163.598)" fill="#5d5c60"/>
      <path id="Path_2" data-name="Path 2" d="M248.3,163.675v3.664c0,1.1.419,1.65,1.155,1.65.755,0,1.172-.528,1.172-1.65v-3.664h1.432v3.566c0,1.965-.989,2.9-2.651,2.9-1.607,0-2.547-.887-2.547-2.916v-3.551Z" transform="translate(-240.289 -163.627)" fill="#5d5c60"/>
      <path id="Path_3" data-name="Path 3" d="M257.182,163.728a11.984,11.984,0,0,1,1.862-.13,3.511,3.511,0,0,1,1.877.357,1.382,1.382,0,0,1,.762,1.246,1.431,1.431,0,0,1-1.045,1.359v.017a1.6,1.6,0,0,1,1.264,1.573,1.689,1.689,0,0,1-.66,1.349,4.013,4.013,0,0,1-2.5.573,10.884,10.884,0,0,1-1.557-.093Zm1.429,2.438h.47c.752,0,1.159-.314,1.159-.784s-.366-.738-1.018-.738a3.666,3.666,0,0,0-.611.04Zm0,2.825a4.777,4.777,0,0,0,.552.018c.653,0,1.229-.256,1.229-.916,0-.64-.576-.9-1.293-.9h-.488Z" transform="translate(-244.168 -163.598)" fill="#5d5c60"/>
      <path id="Path_4" data-name="Path 4" d="M267.458,168.406l-.451,1.635h-1.49l1.941-6.365h1.89l1.975,6.365h-1.551l-.487-1.635Zm1.62-1.078-.4-1.351c-.111-.376-.23-.85-.318-1.229h-.021c-.094.378-.189.862-.294,1.229l-.373,1.351Z" transform="translate(-247.298 -163.627)" fill="#5d5c60"/>
      <rect id="Rectangle_1" data-name="Rectangle 1" width="1.446" height="6.366" transform="translate(24.874 0.048)" fill="#5d5c60"/>
    </g>
    <path id="Path_5" data-name="Path 5" d="M108.083,136.024H98.51v-7.707h-3v18.269h3V138.83h9.574v7.756h3V128.317h-3Z" transform="translate(0 -31.012)" fill="#5d5c60"/>
    <path id="Path_6" data-name="Path 6" d="M134.526,127.9a9.658,9.658,0,0,0-6.988,2.685,9.054,9.054,0,0,0-2.775,6.768,8.867,8.867,0,0,0,2.752,6.638,9.561,9.561,0,0,0,6.873,2.647,10.132,10.132,0,0,0,7.146-2.647,8.77,8.77,0,0,0,2.844-6.688,8.94,8.94,0,0,0-2.817-6.72,9.817,9.817,0,0,0-7.035-2.683m.027,15.94a6.65,6.65,0,0,1-4.791-1.848,6.2,6.2,0,0,1-1.909-4.639,6.352,6.352,0,0,1,1.9-4.728,6.734,6.734,0,0,1,4.877-1.85,6.577,6.577,0,0,1,4.748,1.872,6.173,6.173,0,0,1,1.927,4.605,6.333,6.333,0,0,1-1.929,4.7,6.645,6.645,0,0,1-4.822,1.886" transform="translate(-10.987 -30.854)" fill="#5d5c60"/>
    <path id="Path_7" data-name="Path 7" d="M166.2,136.454l-1.952-1.149a7.275,7.275,0,0,1-1.846-1.425,2.048,2.048,0,0,1-.539-1.353,1.533,1.533,0,0,1,.708-1.3,3.244,3.244,0,0,1,1.925-.538,5.694,5.694,0,0,1,3.993,1.792l.378.361V129.3l-.1-.062a7.416,7.416,0,0,0-4.226-1.3,5.7,5.7,0,0,0-3.94,1.367,4.615,4.615,0,0,0-1.538,3.59,4.4,4.4,0,0,0,.812,2.612,9.176,9.176,0,0,0,2.665,2.253l1.938,1.175c1.49.926,2.243,1.9,2.243,2.9a1.867,1.867,0,0,1-.719,1.5,2.759,2.759,0,0,1-1.853.616,5.811,5.811,0,0,1-4.612-2.537l-.4-.5v4l.087.066a8.118,8.118,0,0,0,4.946,1.665,5.5,5.5,0,0,0,3.887-1.4,4.8,4.8,0,0,0,1.506-3.648c0-2.08-1.132-3.812-3.371-5.154" transform="translate(-23.871 -30.873)" fill="#5d5c60"/>
    <path id="Path_8" data-name="Path 8" d="M185.323,128.265h-5.876v18.3h3.008v-7.73h1.666a10.888,10.888,0,0,0,3.967-.558,4.709,4.709,0,0,0,2.233-1.829,5.2,5.2,0,0,0,.815-2.883,4.977,4.977,0,0,0-1.592-3.861,6.073,6.073,0,0,0-4.221-1.44m1.962,7.172a3.378,3.378,0,0,1-2.253.682h-2.577v-5.137h2.421c2.133,0,3.172.825,3.172,2.526a2.4,2.4,0,0,1-.763,1.929" transform="translate(-31.527 -30.992)" fill="#5d5c60"/>
    <rect id="Rectangle_2" data-name="Rectangle 2" width="2.999" height="18.269" transform="translate(161.41 97.305)" fill="#5d5c60"/>
    <path id="Path_9" data-name="Path 9" d="M224.387,128.265H209.046v2.717h6.114v15.584h3.007V130.982h6.219Z" transform="translate(-42.646 -30.992)" fill="#5d5c60"/>
    <path id="Path_10" data-name="Path 10" d="M239.174,128.151H237.1l-7.855,18.373h3.111l2.229-5.277h7.314l2.378,5.277h3.1l-8.135-18.242Zm1.47,10.369h-4.868l2.343-5.665Z" transform="translate(-50.231 -30.95)" fill="#5d5c60"/>
    <path id="Path_11" data-name="Path 11" d="M271.934,146.586H260.912V128.317h3v15.505h8.023Z" transform="translate(-62.128 -31.012)" fill="#5d5c60"/>
    <path id="Path_12" data-name="Path 12" d="M101.456,87.3h-5.88v18.3h3.013v-7.74h1.668a11.217,11.217,0,0,0,3.963-.554,4.693,4.693,0,0,0,2.235-1.829,5.206,5.206,0,0,0,.817-2.877,4.975,4.975,0,0,0-1.6-3.865,6.091,6.091,0,0,0-4.22-1.439m1.958,7.172a3.359,3.359,0,0,1-2.253.677H98.589V90.02h2.42c2.135,0,3.172.823,3.172,2.521a2.4,2.4,0,0,1-.767,1.931" transform="translate(-0.023 -15.605)" fill="#f26311"/>
    <path id="Path_13" data-name="Path 13" d="M131.662,101.718a31.713,31.713,0,0,0-2.319-3.406,8.747,8.747,0,0,0-1.388-1.338,4.825,4.825,0,0,0,1.962-1.623,4.883,4.883,0,0,0,.82-2.822,4.723,4.723,0,0,0-1.668-3.793,6.69,6.69,0,0,0-4.442-1.388H119.94v18.275h3V97.861h.438a3.817,3.817,0,0,1,1.674.258,5.426,5.426,0,0,1,1.139.9,12.907,12.907,0,0,1,1.414,1.7l1.656,2.712.5.7c.069.1.114.167.145.211l.844,1.276h3.6l-1.206-1.63c-.386-.529-.888-1.294-1.482-2.275m-8.721-11.761h.538a8.891,8.891,0,0,1,2.614.273,2.176,2.176,0,0,1,1.143.872,2.5,2.5,0,0,1,.413,1.4,2.651,2.651,0,0,1-.373,1.41,2.228,2.228,0,0,1-1.025.914,6.886,6.886,0,0,1-2.565.315h-.745Z" transform="translate(-9.175 -15.623)" fill="#f26311"/>
    <rect id="Rectangle_3" data-name="Rectangle 3" width="2.999" height="18.274" transform="translate(128.472 71.725)" fill="#f26311"/>
    <path id="Path_14" data-name="Path 14" d="M167.3,94.536l-5.817-7.188h-2.745v18.274h3V92.152l5.219,6.487h.684l5.154-6.48v13.464H175.8V87.348h-2.715Z" transform="translate(-23.748 -15.623)" fill="#f26311"/>
    <path id="Path_15" data-name="Path 15" d="M194.7,102.876V97.783H202V95.054h-7.3V90.061h7.554V87.348H191.7v18.245H202.49v-2.718Z" transform="translate(-36.128 -15.623)" fill="#f26311"/>
    <g id="Group_8" data-name="Group 8" transform="translate(169.304 45.757)">
      <g id="Group_6" data-name="Group 6" transform="translate(5.709 16.232)">
        <path id="Path_16" data-name="Path 16" d="M267.79,80.658s-18.294,5.5-24.467,25.441c0,0-4.392-12.789,7.327-25.047,0,0,7.469-7.423,11.8-4.818a26.4,26.4,0,0,1,5.338,4.424" transform="translate(-230.232 -73.229)" fill="#f26311"/>
        <g id="Group_3" data-name="Group 3" transform="translate(0 2.226)">
          <g id="Group_2" data-name="Group 2">
            <path id="Path_17" data-name="Path 17" d="M231.467,75.785s-6.436,10.779.046,28.155a27.942,27.942,0,0,1-8.663-19.563s-.62-11.48,8.617-8.592" transform="translate(-222.841 -75.319)" fill="#feb787"/>
          </g>
        </g>
        <g id="Group_5" data-name="Group 5" transform="translate(8.112)">
          <g id="Group_4" data-name="Group 4">
            <path id="Path_18" data-name="Path 18" d="M247.655,72.345a15.356,15.356,0,0,1,2.931,1.523s-15.533,9.032-11.925,30.171c0,0-5.061-9.751-1.642-24.015,0,0,2.523-10.476,10.2-7.846Z" transform="translate(-235.833 -71.754)" fill="#f88a48"/>
          </g>
        </g>
      </g>
      <g id="Group_7" data-name="Group 7">
        <path id="Path_19" data-name="Path 19" d="M253.83,63.736a23.176,23.176,0,0,0-1.123-4.2c-2.968-8.065-10.235-13.781-18.774-13.781-11.175,0-20.236,9.778-20.236,21.831a22.74,22.74,0,0,0,5.4,14.856,27.475,27.475,0,0,1-.5-3.144,20.4,20.4,0,0,1-2.542-9.94c0-10.571,7.838-19.131,17.517-19.131a17.143,17.143,0,0,1,14.61,8.628,19.693,19.693,0,0,1,1.576,3.228c.174.032.348.057.518.106a16.1,16.1,0,0,1,3.55,1.547" transform="translate(-213.697 -45.757)" fill="#5d5c60"/>
        <path id="Path_20" data-name="Path 20" d="M268.215,89.707c-1.132.55-2.222,1.16-3.163,1.725a18.483,18.483,0,0,1-11.068,12.539l-1.065,1.462v.014c7.417-1.712,13.336-7.885,15.3-15.74" transform="translate(-228.43 -62.266)" fill="#5d5c60"/>
      </g>
    </g>
  </g>
</svg>
