<svg width="121" height="50" viewBox="0 0 121 50" fill="none" xmlns="http://www.w3.org/2000/svg">
<path d="M81.96 5.6342V23.294H76.77V21.9006C76.02 22.5367 75.21 23.0517 74.34 23.4152C73.47 23.809 72.54 23.9907 71.58 23.9907C70.26 23.9907 69.03 23.7484 67.86 23.2334C66.69 22.7488 65.7 22.0521 64.83 21.1736C63.99 20.2952 63.3 19.2956 62.82 18.1445C62.31 16.9934 62.07 15.7515 62.07 14.4792C62.07 13.1464 62.31 11.9045 62.82 10.7534C63.33 9.57206 64.02 8.57245 64.89 7.7243C65.76 6.87614 66.75 6.17944 67.92 5.69478C69.06 5.21012 70.29 4.9375 71.58 4.9375C72.54 4.9375 73.47 5.11925 74.34 5.51303C75.21 5.90682 76.02 6.39148 76.77 6.99731V5.6342H81.96ZM72.12 19.2653C72.78 19.2653 73.38 19.1441 73.98 18.8715C74.58 18.6291 75.09 18.2657 75.51 17.8416C75.96 17.4175 76.29 16.9025 76.56 16.327C76.8 15.7515 76.95 15.1154 76.95 14.449C76.95 13.7825 76.83 13.1464 76.56 12.5709C76.32 11.9954 75.96 11.4804 75.51 11.0563C75.06 10.6323 74.55 10.2991 73.98 10.0264C73.38 9.7841 72.78 9.63264 72.12 9.63264C71.46 9.63264 70.83 9.75381 70.23 10.0264C69.63 10.2688 69.12 10.6323 68.7 11.0563C68.28 11.4804 67.92 11.9954 67.68 12.5709C67.44 13.1464 67.29 13.7825 67.29 14.449C67.29 15.1154 67.41 15.7515 67.68 16.327C67.92 16.9025 68.28 17.4175 68.7 17.8416C69.12 18.2657 69.63 18.5989 70.23 18.8715C70.83 19.1138 71.46 19.2653 72.12 19.2653Z" fill="#29419A"/>
<path d="M98.8201 22.9911C98.3101 23.1728 97.6501 23.3243 96.8101 23.4454C95.9701 23.5666 94.8001 23.6272 93.2701 23.6272C92.5201 23.6272 90.0901 22.9002 89.1901 20.3557C88.9501 19.6893 88.6801 18.2959 88.6801 17.5386V9.23883L85.3801 9.20854V5.33126L88.6501 5.36155L88.6801 0.636116L93.0901 0V5.36155H97.9501L97.9201 9.20854H93.0901V17.4175C93.1201 17.9324 93.3001 18.3565 93.6601 18.72C94.0201 19.0835 94.4701 19.2652 94.9801 19.2652C95.8801 19.2652 96.5401 19.1744 96.9301 18.9623C97.3201 18.7806 97.6201 18.6291 97.8001 18.5382L98.8201 22.9911Z" fill="#29419A"/>
<path d="M110.28 4.9375C111.66 4.9375 112.95 5.17983 114.15 5.69478C115.35 6.20973 116.37 6.90643 117.24 7.75459C118.11 8.60274 118.8 9.63264 119.28 10.7837C119.79 11.9348 120.03 13.1767 120.03 14.449C120.03 14.6913 120.03 14.9639 120 15.2365C119.97 15.5091 119.94 15.7818 119.91 16.0241H105.9C106.2 16.9025 106.71 17.6295 107.46 18.2656C108.21 18.9018 109.17 19.2047 110.31 19.2047C111.15 19.2047 111.96 19.0532 112.74 18.72C113.55 18.3868 114.15 17.9627 114.57 17.4478L118.77 20.0225C118.32 20.6284 117.78 21.1736 117.15 21.6583C116.52 22.1429 115.86 22.5367 115.11 22.8699C114.36 23.2031 113.61 23.4757 112.8 23.6575C111.99 23.8392 111.18 23.9301 110.34 23.9301C108.96 23.9301 107.67 23.6878 106.44 23.1728C105.24 22.6882 104.19 21.9915 103.29 21.113C102.39 20.2346 101.7 19.235 101.19 18.0839C100.68 16.9328 100.41 15.6909 100.41 14.4187C100.41 13.0858 100.68 11.8439 101.22 10.6928C101.76 9.51148 102.48 8.51187 103.38 7.66371C104.28 6.81556 105.33 6.11886 106.53 5.6342C107.64 5.17983 108.93 4.9375 110.28 4.9375ZM110.28 9.63264C109.23 9.63264 108.36 9.90527 107.64 10.4505C106.92 10.9958 106.38 11.6622 105.99 12.4497H114.57C114.21 11.6622 113.67 10.9958 112.95 10.4505C112.2 9.93556 111.33 9.63264 110.28 9.63264Z" fill="#29419A"/>
<path d="M17.43 7.48191H11.07V23.9906H6.39V7.48191H0V3.3623H17.43V7.48191Z" fill="#E12F92"/>
<path d="M33.8698 23.9604L29.0998 17.5992H25.4098V23.9604H20.3998V3.3623H30.4798C31.5598 3.3623 32.6098 3.54405 33.5998 3.90755C34.5898 4.27104 35.4298 4.78599 36.1798 5.42211C36.9298 6.05823 37.4998 6.81551 37.9498 7.66366C38.3998 8.54211 38.6098 9.45085 38.6098 10.4505C38.6098 11.8136 38.2198 13.0252 37.4398 14.146C36.6598 15.2668 35.6398 16.1149 34.3498 16.7207L39.7198 23.9301H33.8698V23.9604ZM29.9398 13.4796C30.4198 13.4796 30.8398 13.3887 31.2598 13.2373C31.6798 13.0858 32.0398 12.8738 32.3398 12.6011C32.6398 12.3285 32.8798 11.9953 33.0598 11.6318C33.2398 11.2683 33.3298 10.8745 33.3298 10.4807C33.3298 10.087 33.2398 9.69318 33.0598 9.32968C32.8798 8.96619 32.6398 8.63298 32.3398 8.36036C32.0398 8.08774 31.6798 7.8757 31.2598 7.72425C30.8398 7.57279 30.4198 7.48192 29.9398 7.48192H25.4098V13.4796H29.9398Z" fill="#E12F92"/>
<path d="M50.0402 20.2649C55.1267 20.2649 59.2502 16.1014 59.2502 10.9655C59.2502 5.82957 55.1267 1.66608 50.0402 1.66608C44.9536 1.66608 40.8302 5.82957 40.8302 10.9655C40.8302 16.1014 44.9536 20.2649 50.0402 20.2649Z" fill="#29419A"/>
<path d="M50.0399 16.2058C52.9062 16.2058 55.2299 13.8596 55.2299 10.9654C55.2299 8.07124 52.9062 5.72504 50.0399 5.72504C47.1735 5.72504 44.8499 8.07124 44.8499 10.9654C44.8499 13.8596 47.1735 16.2058 50.0399 16.2058Z" fill="white"/>
<path d="M50.0402 13.2373C51.2829 13.2373 52.2902 12.2202 52.2902 10.9654C52.2902 9.71074 51.2829 8.6936 50.0402 8.6936C48.7976 8.6936 47.7902 9.71074 47.7902 10.9654C47.7902 12.2202 48.7976 13.2373 50.0402 13.2373Z" fill="#E12F92"/>
<path d="M27.1802 43.1348C27.1502 42.953 27.1202 42.7713 27.0902 42.5895C27.1202 42.226 27.1802 41.8626 27.3902 41.5294C27.5402 41.3173 27.6602 41.1053 27.8102 40.8932C29.8502 37.8641 33.3002 32.7146 35.3702 29.6855C35.7002 29.1705 36.1502 28.8676 36.7502 28.7767C38.7902 28.3829 40.8602 27.9892 42.9002 27.5954C43.0202 27.5651 43.1402 27.5348 43.2602 27.5348C44.2202 27.5348 44.9702 28.1406 45.1502 29.1099C45.5402 31.1697 45.9302 33.2295 46.3202 35.2894C46.4402 35.9255 46.3202 36.501 45.9602 37.016C43.8902 40.0754 40.4102 45.2552 38.3402 48.3449C38.0102 48.8295 37.6802 49.2839 37.1402 49.5262C36.9602 49.5565 36.7802 49.5868 36.6002 49.6171C36.0002 49.6171 35.5202 49.3142 35.0402 48.981C32.8202 47.4361 30.5702 45.8913 28.3202 44.3767C27.8402 44.0435 27.3902 43.7103 27.1802 43.1348Z" fill="#DC2E92"/>
<path opacity="0.52" d="M45.8102 24.9903C45.6302 24.8994 45.4502 24.8085 45.2402 24.7177C45.4502 24.7782 45.6302 24.8388 45.7802 24.8994C45.8102 24.9297 45.8102 24.96 45.8102 24.9903Z" fill="#29419A"/>
<path d="M43.6202 23.1425C40.3502 23.1425 37.7102 25.8081 37.7102 29.1099C37.7102 30.5033 38.1902 31.7452 38.9702 32.7751C39.2102 32.4116 39.5702 32.139 39.9902 32.0179C39.3602 31.2303 39.0002 30.2307 39.0002 29.1099C39.0002 26.5351 41.0702 24.445 43.6202 24.445C44.1902 24.445 44.7602 24.5662 45.2702 24.748C45.4502 24.8085 45.6602 24.8994 45.8402 25.0206C46.9202 25.6264 47.7602 26.626 48.0902 27.8377C48.5102 28.0497 48.9902 28.2314 49.5002 28.3223C49.0802 25.3841 46.6202 23.1425 43.6202 23.1425Z" fill="#F6EC3C"/>
<path d="M42.21 33.5627C42.12 32.654 41.37 31.9573 40.44 31.9573C40.29 31.9573 40.14 31.9876 39.99 32.0179C39.57 32.139 39.18 32.4116 38.97 32.7751C38.79 33.0478 38.7 33.381 38.7 33.7445C38.7 34.7138 39.48 35.5316 40.47 35.5316C41.04 35.5316 41.55 35.259 41.88 34.8349C42.12 34.532 42.24 34.1685 42.24 33.7748C42.21 33.6839 42.21 33.6233 42.21 33.5627ZM40.44 34.4715C40.02 34.4715 39.69 34.1382 39.69 33.7142C39.69 33.6536 39.69 33.6233 39.72 33.5627C39.78 33.2295 40.08 32.9569 40.44 32.9569C40.86 32.9569 41.19 33.2901 41.19 33.7142C41.19 33.9868 41.04 34.2291 40.83 34.3503C40.71 34.4412 40.59 34.4715 40.44 34.4715Z" fill="#F6EC3C"/>
<path d="M37.0801 44.316C36.9601 44.316 36.8401 44.2858 36.7501 44.2252L30.5101 39.9541C30.2401 39.7724 30.1501 39.3786 30.3601 39.1059C30.5401 38.8333 30.9301 38.7425 31.2001 38.9545L37.4401 43.2256C37.7101 43.4073 37.8001 43.8011 37.5901 44.0737C37.4701 44.2252 37.2601 44.316 37.0801 44.316Z" fill="#29419A"/>
<path d="M37.2298 47.3755C37.1098 47.3755 36.9898 47.3453 36.8998 47.2847L29.0698 42.1049C28.7998 41.9231 28.7098 41.5596 28.8898 41.2567C29.0698 40.9841 29.4298 40.8932 29.7298 41.075L37.5598 46.2548C37.8298 46.4365 37.9198 46.8 37.7398 47.1029C37.6198 47.2544 37.4398 47.3755 37.2298 47.3755Z" fill="#29419A"/>
<path d="M59.64 24.3239C59.64 28.7161 55.53 32.2905 50.43 32.2905C49.83 32.2905 49.26 32.2299 48.69 32.139C48.24 32.0785 47.79 31.9573 47.37 31.8361C44.07 30.8062 41.61 28.2012 41.28 25.0812C41.88 24.748 42.66 24.4148 43.5 24.4451C44.55 24.4451 44.82 24.5965 45.27 24.748C45.45 24.8085 45.66 24.8994 45.84 25.0206C46.08 26.2322 46.92 27.2621 48.09 27.8377C48.51 28.0497 48.99 28.2315 49.5 28.3223C49.8 28.3829 50.13 28.4132 50.46 28.4132C53.04 28.4132 55.14 26.5957 55.14 24.3542C55.14 22.1126 53.04 20.2952 50.46 20.2952C50.22 20.2952 50.01 20.3254 49.77 20.3557C49.77 20.3557 48.93 20.5375 47.22 20.0528C46.26 19.7802 45.15 18.9926 44.4 18.3868C46.02 17.1449 48.15 16.4179 50.46 16.4179C55.53 16.3573 59.64 19.9317 59.64 24.3239Z" fill="#29419A"/>
<path d="M65.3398 34.4714V27.6862H66.4498V34.4714H65.3398ZM66.1198 28.6858V27.6559H69.8398V28.6858H66.1198ZM66.1198 31.5029V30.5336H69.5698V31.5029H66.1198ZM66.1198 34.4714V33.4415H69.8998V34.4714H66.1198Z" fill="#F5EC3D"/>
<path d="M70.5899 32.5025V31.5029H73.8599V32.5025H70.5899Z" fill="#F5EC3D"/>
<path d="M77.1598 34.5623C76.7098 34.5623 76.3198 34.4714 75.9598 34.2594C75.5998 34.0473 75.3298 33.7747 75.1198 33.4112C74.9098 33.0477 74.8198 32.6539 74.8198 32.1996C74.8198 31.7452 74.9098 31.3514 75.1198 30.9879C75.3298 30.6244 75.5998 30.3518 75.9598 30.1398C76.3198 29.9277 76.7098 29.8369 77.1598 29.8369C77.4898 29.8369 77.8198 29.8974 78.1198 30.0186C78.4198 30.1398 78.6598 30.3215 78.8698 30.5638L78.4198 31.0182C78.2698 30.8365 78.0898 30.7153 77.8498 30.6244C77.6398 30.5336 77.3998 30.473 77.1598 30.473C76.8298 30.473 76.5598 30.5336 76.2898 30.685C76.0498 30.8365 75.8398 31.0485 75.6898 31.2908C75.5398 31.5332 75.4798 31.8361 75.4798 32.1693C75.4798 32.5025 75.5398 32.8054 75.6898 33.0477C75.8398 33.3203 76.0198 33.5021 76.2898 33.6536C76.5298 33.805 76.8298 33.8656 77.1598 33.8656C77.4298 33.8656 77.6398 33.805 77.8798 33.7141C78.0898 33.6233 78.2698 33.4718 78.4498 33.3203L78.8998 33.7747C78.6898 34.017 78.4198 34.1988 78.1498 34.32C77.8198 34.5017 77.4898 34.5623 77.1598 34.5623Z" fill="#284498"/>
<path d="M81.7795 34.5622C81.3295 34.5622 80.9395 34.4411 80.5795 34.229C80.2195 34.017 79.9495 33.7141 79.7395 33.3506C79.5295 32.9871 79.4395 32.5933 79.4395 32.1389C79.4395 31.6846 79.5295 31.2908 79.7395 30.9576C79.9495 30.5941 80.2195 30.3215 80.5795 30.1094C80.9395 29.8974 81.3295 29.8065 81.7795 29.8065C82.2295 29.8065 82.6195 29.8974 82.9795 30.1094C83.3395 30.3215 83.6095 30.5941 83.8195 30.9576C84.0295 31.3211 84.1195 31.7149 84.1195 32.1692C84.1195 32.6236 84.0295 33.0174 83.8195 33.3809C83.6095 33.7444 83.3395 34.017 82.9795 34.229C82.6195 34.4714 82.2295 34.5622 81.7795 34.5622ZM81.7795 33.9261C82.1095 33.9261 82.3795 33.8655 82.6195 33.7141C82.8595 33.5626 83.0695 33.3506 83.2195 33.078C83.3695 32.8054 83.4295 32.5024 83.4295 32.1995C83.4295 31.8663 83.3695 31.5634 83.2195 31.3211C83.0695 31.0788 82.8895 30.8667 82.6195 30.7153C82.3795 30.5638 82.0795 30.5032 81.7795 30.5032C81.4795 30.5032 81.1795 30.5638 80.9395 30.7153C80.6995 30.8667 80.4895 31.0788 80.3395 31.3211C80.1895 31.5634 80.1295 31.8663 80.1295 32.1995C80.1295 32.5327 80.1895 32.8356 80.3395 33.1083C80.4895 33.3809 80.6695 33.5626 80.9395 33.7141C81.1795 33.8353 81.4795 33.9261 81.7795 33.9261Z" fill="#284498"/>
<path d="M85.1996 34.4714V29.9277H85.8596V34.5017H85.1996V34.4714ZM88.2896 34.4714V31.6846C88.2896 31.3211 88.1696 31.0182 87.9596 30.7758C87.7496 30.5638 87.4496 30.4426 87.1196 30.4426C86.8796 30.4426 86.6696 30.5032 86.4896 30.5941C86.3096 30.685 86.1596 30.8364 86.0396 31.0182C85.9196 31.1999 85.8596 31.412 85.8596 31.6543L85.5596 31.5331C85.5596 31.1696 85.6496 30.8667 85.7996 30.6244C85.9496 30.3518 86.1596 30.17 86.4296 30.0186C86.6996 29.8671 86.9696 29.8065 87.2996 29.8065C87.6296 29.8065 87.8996 29.8671 88.1696 30.0186C88.4096 30.17 88.6196 30.3518 88.7696 30.6244C88.9196 30.897 89.0096 31.1999 89.0096 31.5331V34.4411H88.2896V34.4714ZM91.4096 34.4714V31.6846C91.4096 31.3211 91.2896 31.0182 91.0796 30.7758C90.8696 30.5638 90.5696 30.4426 90.2096 30.4426C89.9996 30.4426 89.7896 30.5032 89.5796 30.5941C89.3996 30.685 89.2496 30.8364 89.1296 31.0182C89.0096 31.1999 88.9496 31.412 88.9496 31.6543L88.5596 31.5331C88.5896 31.1696 88.6796 30.8667 88.8296 30.6244C88.9796 30.3518 89.2196 30.17 89.4596 30.0186C89.7296 29.8671 90.0296 29.8065 90.3296 29.8065C90.6596 29.8065 90.9296 29.8671 91.1996 30.0186C91.4696 30.17 91.6496 30.3518 91.8296 30.6244C91.9796 30.897 92.0696 31.1999 92.0696 31.5331V34.4411H91.4096V34.4714Z" fill="#284498"/>
<path d="M93.3596 34.4714V29.9277H94.0196V34.5017H93.3596V34.4714ZM96.4796 34.4714V31.6846C96.4796 31.3211 96.3596 31.0182 96.1496 30.7758C95.9396 30.5638 95.6396 30.4426 95.3096 30.4426C95.0696 30.4426 94.8596 30.5032 94.6796 30.5941C94.4996 30.685 94.3496 30.8364 94.2296 31.0182C94.1096 31.1999 94.0496 31.412 94.0496 31.6543L93.7496 31.5331C93.7496 31.1696 93.8396 30.8667 93.9896 30.6244C94.1396 30.3518 94.3496 30.17 94.6196 30.0186C94.8896 29.8671 95.1596 29.8065 95.4896 29.8065C95.8196 29.8065 96.0896 29.8671 96.3596 30.0186C96.5996 30.17 96.8096 30.3518 96.9596 30.6244C97.1096 30.897 97.1996 31.1999 97.1996 31.5331V34.4411H96.4796V34.4714ZM99.5696 34.4714V31.6846C99.5696 31.3211 99.4496 31.0182 99.2396 30.7758C99.0296 30.5638 98.7296 30.4426 98.3696 30.4426C98.1596 30.4426 97.9496 30.5032 97.7396 30.5941C97.5596 30.685 97.4096 30.8364 97.2896 31.0182C97.1696 31.1999 97.1096 31.412 97.1096 31.6543L96.7196 31.5331C96.7496 31.1696 96.8396 30.8667 96.9896 30.6244C97.1396 30.3518 97.3796 30.17 97.6196 30.0186C97.8896 29.8671 98.1896 29.8065 98.4896 29.8065C98.8196 29.8065 99.0896 29.8671 99.3596 30.0186C99.6296 30.17 99.8096 30.3518 99.9896 30.6244C100.14 30.897 100.23 31.1999 100.23 31.5331V34.4411H99.5696V34.4714Z" fill="#284498"/>
<path d="M103.62 34.5623C103.17 34.5623 102.75 34.4714 102.39 34.2594C102.03 34.0473 101.76 33.7747 101.55 33.4112C101.34 33.0477 101.25 32.6539 101.25 32.1996C101.25 31.7452 101.34 31.3514 101.55 30.9879C101.76 30.6244 102.03 30.3518 102.39 30.1398C102.75 29.9277 103.14 29.8369 103.56 29.8369C103.98 29.8369 104.34 29.9277 104.64 30.1095C104.97 30.2912 105.21 30.5638 105.39 30.897C105.57 31.2303 105.66 31.624 105.66 32.0481C105.66 32.1087 105.66 32.1693 105.66 32.2299C105.66 32.2904 105.63 32.3813 105.63 32.4722H101.73V31.8967H105.27L105.03 32.1087C105.03 31.7755 104.97 31.4726 104.85 31.2303C104.73 30.9879 104.55 30.8062 104.34 30.6547C104.13 30.5336 103.86 30.4427 103.53 30.4427C103.2 30.4427 102.93 30.5033 102.66 30.6547C102.42 30.8062 102.24 30.9879 102.09 31.2605C101.94 31.5029 101.88 31.8058 101.88 32.1693C101.88 32.5328 101.94 32.8357 102.09 33.078C102.24 33.3506 102.45 33.5627 102.69 33.7141C102.96 33.8656 103.26 33.9262 103.59 33.9262C103.86 33.9262 104.13 33.8656 104.34 33.7747C104.58 33.6838 104.76 33.5324 104.94 33.3203L105.36 33.7747C105.15 34.017 104.88 34.2291 104.58 34.3502C104.31 34.5017 103.98 34.5623 103.62 34.5623Z" fill="#284498"/>
<path d="M106.71 34.4714V29.9277H107.37V34.5017H106.71V34.4714ZM107.37 31.8057L107.1 31.6846C107.1 31.109 107.25 30.6547 107.52 30.3215C107.79 29.9883 108.18 29.8065 108.66 29.8065C108.87 29.8065 109.08 29.8368 109.29 29.9277C109.47 30.0186 109.65 30.1397 109.8 30.3215L109.35 30.8061C109.23 30.685 109.11 30.5941 108.99 30.5335C108.87 30.4729 108.72 30.4426 108.54 30.4426C108.18 30.4426 107.91 30.5638 107.7 30.7758C107.49 31.0182 107.37 31.3817 107.37 31.8057Z" fill="#284498"/>
<path d="M112.41 34.5623C111.96 34.5623 111.57 34.4714 111.21 34.2594C110.85 34.0473 110.58 33.7747 110.37 33.4112C110.16 33.0477 110.07 32.6539 110.07 32.1996C110.07 31.7452 110.16 31.3514 110.37 30.9879C110.58 30.6244 110.85 30.3518 111.21 30.1398C111.57 29.9277 111.96 29.8369 112.41 29.8369C112.74 29.8369 113.07 29.8974 113.37 30.0186C113.67 30.1398 113.91 30.3215 114.12 30.5638L113.67 31.0182C113.52 30.8365 113.34 30.7153 113.1 30.6244C112.89 30.5336 112.65 30.473 112.41 30.473C112.08 30.473 111.81 30.5336 111.54 30.685C111.3 30.8365 111.09 31.0485 110.94 31.2908C110.79 31.5332 110.73 31.8361 110.73 32.1693C110.73 32.5025 110.79 32.8054 110.94 33.0477C111.09 33.3203 111.27 33.5021 111.54 33.6536C111.78 33.805 112.08 33.8656 112.41 33.8656C112.68 33.8656 112.89 33.805 113.13 33.7141C113.34 33.6233 113.52 33.4718 113.7 33.3203L114.15 33.7747C113.94 34.017 113.67 34.1988 113.4 34.32C113.07 34.5017 112.74 34.5623 112.41 34.5623Z" fill="#284498"/>
<path d="M117.06 34.5623C116.61 34.5623 116.19 34.4714 115.83 34.2594C115.47 34.0473 115.2 33.7747 114.99 33.4112C114.78 33.0477 114.69 32.6539 114.69 32.1996C114.69 31.7452 114.78 31.3514 114.99 30.9879C115.2 30.6244 115.47 30.3518 115.83 30.1398C116.19 29.9277 116.58 29.8369 117 29.8369C117.42 29.8369 117.78 29.9277 118.08 30.1095C118.41 30.2912 118.65 30.5638 118.83 30.897C119.01 31.2303 119.1 31.624 119.1 32.0481C119.1 32.1087 119.1 32.1693 119.1 32.2299C119.1 32.2904 119.07 32.3813 119.07 32.4722H115.17V31.8967H118.71L118.47 32.1087C118.47 31.7755 118.41 31.4726 118.29 31.2303C118.17 30.9879 117.99 30.8062 117.78 30.6547C117.57 30.5336 117.3 30.4427 116.97 30.4427C116.64 30.4427 116.37 30.5033 116.1 30.6547C115.86 30.8062 115.68 30.9879 115.53 31.2605C115.38 31.5029 115.32 31.8058 115.32 32.1693C115.32 32.5328 115.38 32.8357 115.53 33.078C115.68 33.3506 115.89 33.5627 116.13 33.7141C116.4 33.8656 116.7 33.9262 117.03 33.9262C117.3 33.9262 117.57 33.8656 117.78 33.7747C118.02 33.6838 118.2 33.5324 118.38 33.3203L118.8 33.7747C118.59 34.017 118.32 34.2291 118.02 34.3502C117.75 34.5017 117.42 34.5623 117.06 34.5623Z" fill="#284498"/>
</svg>
