<svg width="202" height="122" viewBox="0 0 202 122" fill="none" xmlns="http://www.w3.org/2000/svg">
<path d="M17.6199 40.2493C17.6199 40.2493 10.1761 59.3228 35.485 81.1898C35.485 81.1898 32.174 82.5649 28.8567 79.9934C25.5456 77.4219 7.59397 55.4624 17.6199 40.2493Z" fill="url(#paint0_linear_469_4983)"/>
<path d="M84.954 40.2493C84.954 40.2493 92.3978 59.3228 67.0889 81.1898C67.0889 81.1898 70.4 82.5649 73.7172 79.9934C77.0283 77.4219 94.9799 55.4624 84.954 40.2493Z" fill="url(#paint1_linear_469_4983)"/>
<path d="M51.287 38.1956C45.3011 38.1956 44.0224 30.8943 31.476 31.9488C17.9907 33.0834 10.584 45.6943 10.584 45.6943C10.584 45.6943 12.4805 29.8274 32.0629 26.8119C43.3243 25.0729 49.4091 32.6456 51.2932 32.6456V38.2018L51.287 38.1956Z" fill="url(#paint2_linear_469_4983)"/>
<path d="M51.2871 38.1958C57.273 38.1958 58.5518 30.8944 71.0981 31.9489C84.5834 33.0836 91.9902 45.6944 91.9902 45.6944C91.9902 45.6944 90.4211 29.6919 70.8387 26.6703C59.5772 24.9313 53.165 32.6396 51.2871 32.6396V38.1958Z" fill="url(#paint3_linear_469_4983)"/>
<path d="M87.8326 64.8171C87.9376 64.6259 88.0364 64.4348 88.1353 64.2436C88.6294 63.2631 89.0804 62.2826 89.4819 61.2959C91.8479 55.2464 91.5575 49.6841 88.5924 44.7138C87.6163 43.0796 86.3685 41.5811 84.9539 40.2429C86.2202 42.5739 86.9677 45.2503 86.9677 48.1918C86.9677 66.6794 67.966 81.0169 58.496 87.0109C57.4087 87.6954 56.0003 86.9184 56.0003 85.6358V69.1584C56.0003 62.5231 56.0744 57.7563 59.089 57.9968C61.3685 58.1756 58.8295 60.2784 58.8295 64.3731C58.8295 68.4678 60.448 72.1246 66.4772 72.1246C72.5064 72.1246 75.6692 64.4286 75.6692 55.7459C75.6692 47.0633 70.6284 39.1699 65.8842 39.1699C63.9692 39.1699 59.0458 41.5318 59.0458 46.9214C59.0458 50.8434 61.5229 51.7253 59.3917 53.1251C55.0798 55.9618 54.0791 56.8066 54.0791 63.2508V91.3461H54.11C54.1409 91.7099 54.2459 92.0799 54.4436 92.4191C54.9254 93.2454 55.7902 93.7079 56.686 93.7079C57.1246 93.7079 57.5694 93.5969 57.9771 93.3626C62.4928 90.7541 71.1906 85.2041 78.6714 77.3354C82.5694 73.2346 85.6334 69.0536 87.8449 64.8171H87.8326Z" fill="#E82448"/>
<path d="M14.7414 64.8171C14.6364 64.6259 14.5376 64.4348 14.4387 64.2436C13.9445 63.2631 13.4936 62.2826 13.0921 61.2959C10.7261 55.2464 11.0164 49.6841 13.9816 44.7138C14.9576 43.0796 16.2055 41.5811 17.6201 40.2429C16.3537 42.5739 15.6063 45.2503 15.6063 48.1918C15.6063 66.6794 34.608 81.0169 44.078 87.0109C45.1653 87.6954 46.5737 86.9184 46.5737 85.6358V69.1584C46.5737 62.5231 46.4996 57.7563 43.485 57.9968C41.2055 58.1756 43.7445 60.2784 43.7445 64.3731C43.7445 68.4678 42.126 72.1246 36.0968 72.1246C30.0676 72.1246 26.9048 64.4286 26.9048 55.7459C26.9048 47.0633 31.9456 39.1699 36.6898 39.1699C38.6048 39.1699 43.5282 41.5318 43.5282 46.9214C43.5282 50.8434 41.0511 51.7253 43.1823 53.1251C47.4941 55.9618 48.4949 56.8066 48.4949 63.2508C48.4949 73.6354 48.4949 91.3461 48.4949 91.3461H48.464C48.4331 91.7099 48.3281 92.0799 48.1304 92.4191C47.6486 93.2454 46.7837 93.7079 45.888 93.7079C45.4494 93.7079 45.0046 93.5969 44.5969 93.3626C40.0812 90.7541 31.3834 85.2041 23.9026 77.3354C20.0046 73.2346 16.9406 69.0536 14.7291 64.8171H14.7414Z" fill="#620047"/>
<path d="M51.2869 38.1957C47.7225 38.1957 45.1156 27.4348 29.1717 31.0547C15.3219 34.1997 10.5776 45.6943 10.5776 45.6943C10.5776 45.6943 11.4301 30.6908 28.8566 25.887C38.3452 23.2723 46.0175 27.7247 49.4028 30.2653C50.5209 31.104 52.0467 31.104 53.1648 30.2653C56.55 27.7308 64.2224 23.2723 73.7109 25.887C91.1374 30.6908 91.9899 45.6943 91.9899 45.6943C91.9899 45.6943 87.2457 34.1997 73.3959 31.0547C57.4519 27.4348 54.8451 38.1957 51.2807 38.1957H51.2869Z" fill="url(#paint4_linear_469_4983)"/>
<path opacity="0.7" d="M36.8007 39.1824C32.0564 39.1824 27.0156 47.0758 27.0156 55.7584C27.0156 64.4411 30.1352 72.0199 36.0779 72.1309C34.6262 66.3774 29.9623 45.0654 39.0678 39.8053C38.1844 39.3798 37.3628 39.1763 36.8007 39.1763V39.1824Z" fill="url(#paint5_linear_469_4983)"/>
<path opacity="0.7" d="M65.8843 39.1824C70.6286 39.1824 75.6693 47.0758 75.6693 55.7584C75.6693 64.3794 72.5497 72.0199 66.6071 72.1309C68.0588 66.3774 72.7227 45.0654 63.6172 39.8053C64.5006 39.3798 65.3222 39.1763 65.8843 39.1763V39.1824Z" fill="url(#paint6_linear_469_4983)"/>
<path d="M116.595 57.3187L110.479 49.2527L108.904 51.1274V57.3249H104.604V37.1661H108.904V46.1694L121.345 35.7539V37.1661L113.321 46.6257L121.889 55.9127V57.3249H116.589L116.595 57.3187Z" fill="#620047"/>
<path d="M122.333 38.3438C122.333 37.869 122.179 36.4877 122.587 35.8648C123.26 34.8227 124.638 34.5698 124.638 34.5698C124.638 34.5698 125.916 34.6747 126.54 35.5935C127.164 36.5123 126.936 37.7827 126.936 38.3377C126.936 39.608 125.904 40.6317 124.638 40.6317C123.371 40.6317 122.34 39.6018 122.34 38.3377L122.333 38.3438ZM122.729 57.3803V42.7838H126.571V57.3803H122.729Z" fill="#620047"/>
<path d="M138.661 57.3187V55.4749C137.512 56.8932 135.905 57.6825 134.151 57.6825C130.457 57.6825 127.671 54.9014 127.671 50.0359C127.671 45.1704 130.426 42.3584 134.151 42.3584C135.875 42.3584 137.512 43.1169 138.661 44.5969V37.166H142.534V57.3249H138.661V57.3187ZM138.661 47.4397C137.993 46.4715 136.634 45.7747 135.331 45.7747C133.15 45.7747 131.637 47.4952 131.637 50.0359C131.637 52.5765 133.15 54.2662 135.331 54.2662C136.634 54.2662 137.993 53.5694 138.661 52.6012V47.4335V47.4397Z" fill="#620047"/>
<path d="M154.58 57.3187V48.4942C154.58 46.4716 153.517 45.7747 151.886 45.7747C150.373 45.7747 149.193 46.6196 148.557 47.4952V57.3187H144.714V42.7222H148.557V44.6277C149.496 43.5116 151.281 42.3584 153.672 42.3584C156.878 42.3584 158.422 44.1714 158.422 47.0142V57.3187H154.58Z" fill="#620047"/>
<path d="M167.274 42.3582C171.636 42.3582 174.601 45.6204 174.601 50.3934V51.2382H163.735C163.976 53.082 165.458 54.6237 167.942 54.6237C169.307 54.6237 170.907 54.0811 171.846 53.1746L173.409 54.2414L173.538 55.6536C172.056 57.0164 169.782 57.6762 167.515 57.6762C163.068 57.6762 159.707 54.6854 159.707 49.9987C159.707 45.7684 162.827 42.3521 167.274 42.3521V42.3582ZM163.673 48.6421H170.876C170.783 47.2546 169.813 45.4107 167.274 45.4107C164.884 45.4107 163.852 47.1929 163.673 48.6421Z" fill="#620047"/>
<path d="M175.83 61.6167C176.164 61.7709 177.146 59.8222 177.51 59.8222C178.511 59.8222 179.172 59.5509 179.537 58.7615L180.08 57.522L174.15 42.7159L174.255 41.3037L178.264 42.7159L182.076 52.8662L190.143 41.3037L190.038 42.7159L183.169 59.6989C182.082 62.4492 180.142 63.1769 177.628 63.2324C177.177 63.2324 176.207 63.1399 175.719 63.0227L175.824 61.6105L175.83 61.6167Z" fill="#620047"/>
<path d="M104.58 78.9142V58.7554H118.868V62.443H108.879V66.8275H118.658V70.5152H108.879V75.2019H118.868V78.9204H104.58V78.9142Z" fill="#620047"/>
<path d="M130.123 78.9144L126.794 73.9872L123.433 78.9144H119.165L124.341 71.4219L119.467 64.3179H123.767L126.794 68.8195L129.79 64.3179H134.089L129.184 71.4219L134.423 78.9144H130.123Z" fill="#620047"/>
<path d="M139.118 84.4768H135.275V64.3179H139.118V66.1618C140.236 64.7434 141.842 63.9541 143.627 63.9541C147.383 63.9541 150.107 66.7353 150.107 71.6008C150.107 76.4663 147.383 79.2783 143.627 79.2783C141.904 79.2783 140.298 78.5506 139.118 77.0398V84.4706V84.4768ZM142.416 67.3704C141.175 67.3704 139.754 68.0981 139.118 69.0293V74.1969C139.754 75.1034 141.175 75.8558 142.416 75.8558C144.628 75.8558 146.111 74.1353 146.111 71.5946C146.111 69.0539 144.628 67.3643 142.416 67.3643V67.3704Z" fill="#620047"/>
<path d="M158.552 63.9539C162.913 63.9539 165.878 67.2161 165.878 71.9891V72.8339H155.012C155.253 74.6778 156.736 76.2194 159.219 76.2194C160.578 76.2194 162.184 75.6768 163.123 74.7703L164.816 77.2493C163.333 78.6059 161.06 79.2719 158.793 79.2719C154.345 79.2719 150.984 76.2811 150.984 71.5944C150.984 67.3641 154.104 63.9478 158.552 63.9478V63.9539ZM154.95 70.2378H162.153C162.061 68.8503 161.097 67.0064 158.552 67.0064C156.161 67.0064 155.129 68.7886 154.95 70.2378Z" fill="#620047"/>
<path d="M167.293 78.9144V64.3179H171.135V66.3097C172.167 65.0085 173.983 63.9849 175.799 63.9849V67.7342C175.527 67.6725 175.163 67.6417 174.743 67.6417C173.47 67.6417 171.778 68.3385 171.142 69.2759V78.9144H167.299H167.293Z" fill="#620047"/>
<path d="M179.555 75.2882V67.6724H177.133V64.3177H179.555V60.3279H183.428V64.3177H186.393V67.6724H183.428V74.2584C183.428 75.1649 183.91 75.8617 184.762 75.8617C185.337 75.8617 185.881 75.652 186.097 75.4362L186.912 78.3345C186.338 78.8464 185.306 79.2719 183.706 79.2719C181.013 79.2719 179.561 77.8844 179.561 75.282L179.555 75.2882Z" fill="#620047"/>
<path d="M121.345 35.7476H116.051L108.904 44.7571V35.7476H104.604V55.9064H108.904V49.7089L110.479 47.8342L116.595 55.9064H121.889L113.327 45.2072L121.345 35.7476Z" fill="#E82448"/>
<path d="M126.578 41.3098H122.735V55.9063H126.578V41.3098Z" fill="#E82448"/>
<path d="M124.644 39.1639C125.913 39.1639 126.942 38.1369 126.942 36.8699C126.942 35.603 125.913 34.5759 124.644 34.5759C123.375 34.5759 122.346 35.603 122.346 36.8699C122.346 38.1369 123.375 39.1639 124.644 39.1639Z" fill="#E82448"/>
<path d="M138.63 43.1846C137.481 41.7046 135.844 40.9461 134.12 40.9461C130.395 40.9461 127.64 43.8444 127.64 48.6236C127.64 53.4027 130.426 56.2702 134.12 56.2702C135.875 56.2702 137.481 55.4871 138.63 54.0626V55.9064H142.503V35.7476H138.63V43.1784V43.1846ZM138.63 51.1951C137.963 52.1632 136.604 52.8601 135.3 52.8601C133.12 52.8601 131.606 51.1396 131.606 48.6297C131.606 46.1199 133.12 44.3686 135.3 44.3686C136.604 44.3686 137.963 45.0654 138.63 46.0274V51.1951Z" fill="#E82448"/>
<path d="M153.672 40.946C151.281 40.946 149.496 42.093 148.557 43.2154V41.3099H144.714V55.9064H148.557V46.0829C149.193 45.2072 150.373 44.3624 151.886 44.3624C153.523 44.3624 154.58 45.0592 154.58 47.0819V55.9064H158.422V45.6019C158.422 42.759 156.878 40.946 153.672 40.946Z" fill="#E82448"/>
<path d="M167.145 40.946C162.697 40.946 159.578 44.3624 159.578 48.5927C159.578 53.2794 162.938 56.2702 167.386 56.2702C169.659 56.2702 171.926 55.6042 173.409 54.2475L171.716 51.7685C170.777 52.675 169.171 53.2177 167.812 53.2177C165.329 53.2177 163.846 51.676 163.605 49.8322H174.471V48.9874C174.471 44.2144 171.506 40.9522 167.145 40.9522V40.946ZM163.544 47.2299C163.723 45.7807 164.754 43.9985 167.145 43.9985C169.69 43.9985 170.654 45.8424 170.746 47.2299H163.544Z" fill="#E82448"/>
<path d="M185.998 41.3098L182.187 51.4663L178.375 41.3098H174.261L180.192 56.116L179.648 57.3555C179.283 58.1386 178.616 58.4161 177.622 58.4161C177.257 58.4161 176.745 58.3236 176.411 58.1756L175.836 61.6228C176.318 61.7461 177.288 61.8325 177.745 61.8325C180.26 61.7708 182.193 61.0493 183.286 58.299L190.156 41.316H186.011L185.998 41.3098Z" fill="#E82448"/>
<path d="M142.299 90.668V82.4417H143.411V85.5743C143.88 84.933 144.584 84.563 145.363 84.563C146.92 84.563 148.019 85.784 148.019 87.6957C148.019 89.6073 146.907 90.816 145.363 90.816C144.56 90.816 143.856 90.409 143.411 89.817V90.668H142.299ZM143.411 88.966C143.707 89.447 144.387 89.8293 145.066 89.8293C146.178 89.8293 146.87 88.9413 146.87 87.6957C146.87 86.45 146.178 85.5497 145.066 85.5497C144.387 85.5497 143.707 85.9567 143.411 86.4377V88.966Z" fill="#808285"/>
<path d="M149.008 91.9999C149.143 92.0616 149.353 92.0986 149.502 92.0986C149.909 92.0986 150.181 91.9629 150.367 91.5189L150.713 90.7296L148.254 84.7109H149.44L151.306 89.3853L153.171 84.7109H154.37L151.429 91.8026C151.046 92.7399 150.391 93.0729 149.526 93.0853C149.341 93.0853 149.008 93.0483 148.835 92.9989L149.008 91.9999Z" fill="#808285"/>
<path d="M157.866 90.668V82.4417H161.733C163.203 82.4417 164.055 83.342 164.055 84.5383C164.055 85.5743 163.376 86.265 162.622 86.4253C163.5 86.561 164.216 87.449 164.216 88.448C164.216 89.743 163.351 90.668 161.832 90.668H157.866ZM159.101 85.932H161.498C162.326 85.932 162.783 85.414 162.783 84.7357C162.783 84.0573 162.326 83.527 161.498 83.527H159.101V85.932ZM159.101 89.5826H161.56C162.425 89.5826 162.944 89.0893 162.944 88.2877C162.944 87.6093 162.474 87.0173 161.56 87.0173H159.101V89.5826Z" fill="#808285"/>
<path d="M169.097 90.668V90.0143C168.627 90.5323 167.948 90.816 167.144 90.816C166.156 90.816 165.069 90.15 165.069 88.8427C165.069 87.5353 166.144 86.894 167.144 86.894C167.948 86.894 168.639 87.153 169.097 87.6833V86.6967C169.097 85.9567 168.491 85.5127 167.639 85.5127C166.959 85.5127 166.378 85.7717 165.847 86.302L165.365 85.5373C166.033 84.8837 166.848 84.563 167.812 84.563C169.109 84.563 170.208 85.1303 170.208 86.6473V90.668H169.097ZM169.097 88.3493C168.763 87.9053 168.182 87.671 167.565 87.671C166.761 87.671 166.193 88.152 166.193 88.855C166.193 89.558 166.761 90.039 167.565 90.039C168.182 90.039 168.763 89.8047 169.097 89.3607V88.3493Z" fill="#808285"/>
<path d="M171.555 91.9999C171.691 92.0616 171.901 92.0986 172.049 92.0986C172.457 92.0986 172.729 91.9629 172.914 91.5189L173.26 90.7296L170.801 84.7109H171.987L173.853 89.3853L175.718 84.7109H176.917L173.976 91.8026C173.593 92.7399 172.939 93.0729 172.074 93.0853C171.888 93.0853 171.555 93.0483 171.382 92.9989L171.555 91.9999Z" fill="#808285"/>
<path d="M180.13 84.563C181.921 84.563 183.033 85.9567 183.033 87.782V88.0533H178.313C178.4 89.0647 179.141 89.9033 180.34 89.9033C180.97 89.9033 181.662 89.6567 182.106 89.2003L182.625 89.928C182.032 90.5077 181.192 90.816 180.228 90.816C178.449 90.816 177.14 89.558 177.14 87.6833C177.14 85.9567 178.387 84.563 180.13 84.563ZM178.301 87.2517H181.946C181.921 86.4623 181.39 85.4757 180.13 85.4757C178.869 85.4757 178.363 86.4377 178.301 87.2517Z" fill="#808285"/>
<path d="M184.12 90.6681V84.7111H185.232V85.6238C185.689 85.0318 186.393 84.5754 187.184 84.5754V85.6978C187.073 85.6731 186.949 85.6608 186.801 85.6608C186.245 85.6608 185.491 86.0801 185.232 86.5241V90.6681H184.12Z" fill="#808285"/>
<defs>
<linearGradient id="paint0_linear_469_4983" x1="25.0452" y1="72.4084" x2="25.0452" y2="40.9893" gradientUnits="userSpaceOnUse">
<stop stop-color="#620047"/>
<stop offset="0.36" stop-color="#8E0B47"/>
<stop offset="1" stop-color="#E82448"/>
</linearGradient>
<linearGradient id="paint1_linear_469_4983" x1="77.5287" y1="72.4084" x2="77.5287" y2="40.9893" gradientUnits="userSpaceOnUse">
<stop stop-color="#E82448"/>
<stop offset="0.14" stop-color="#DC2047"/>
<stop offset="0.4" stop-color="#BD1847"/>
<stop offset="0.75" stop-color="#8B0B47"/>
<stop offset="1" stop-color="#620047"/>
</linearGradient>
<linearGradient id="paint2_linear_469_4983" x1="10.584" y1="36.1174" x2="51.287" y2="36.1174" gradientUnits="userSpaceOnUse">
<stop offset="0.17" stop-color="#E82448"/>
<stop offset="0.27" stop-color="#E02147"/>
<stop offset="0.41" stop-color="#CB1C47"/>
<stop offset="0.58" stop-color="#A81247"/>
<stop offset="0.78" stop-color="#780647"/>
<stop offset="0.86" stop-color="#620047"/>
</linearGradient>
<linearGradient id="paint3_linear_469_4983" x1="51.2871" y1="36.0498" x2="91.9902" y2="36.0498" gradientUnits="userSpaceOnUse">
<stop offset="0.17" stop-color="#E82448"/>
<stop offset="0.27" stop-color="#E02147"/>
<stop offset="0.41" stop-color="#CB1C47"/>
<stop offset="0.58" stop-color="#A81247"/>
<stop offset="0.78" stop-color="#780647"/>
<stop offset="0.86" stop-color="#620047"/>
</linearGradient>
<linearGradient id="paint4_linear_469_4983" x1="10.8742" y1="35.3898" x2="92.0332" y2="35.3898" gradientUnits="userSpaceOnUse">
<stop offset="0.14" stop-color="#620047"/>
<stop offset="0.22" stop-color="#780647"/>
<stop offset="0.42" stop-color="#A81247"/>
<stop offset="0.59" stop-color="#CB1C47"/>
<stop offset="0.73" stop-color="#E02147"/>
<stop offset="0.83" stop-color="#E82448"/>
</linearGradient>
<linearGradient id="paint5_linear_469_4983" x1="33.0448" y1="67.1544" x2="33.0448" y2="33.6571" gradientUnits="userSpaceOnUse">
<stop stop-color="#620047"/>
<stop offset="0.36" stop-color="#8E0B47"/>
<stop offset="1" stop-color="#E82448"/>
</linearGradient>
<linearGradient id="paint6_linear_469_4983" x1="69.6402" y1="30.1668" x2="69.6402" y2="63.7196" gradientUnits="userSpaceOnUse">
<stop offset="0.06" stop-color="#620047"/>
<stop offset="1" stop-color="#E82448"/>
</linearGradient>
</defs>
</svg>
